<svg width="239" height="191" viewBox="0 0 239 191" fill="none" xmlns="http://www.w3.org/2000/svg">
<rect x="58" y="69" width="34" height="86" rx="9" fill="black"/>
<ellipse cx="75" cy="51.5" rx="14" ry="14.5" fill="black"/>
<rect x="148" y="69" width="34" height="86" rx="9" fill="black"/>
<ellipse cx="165" cy="51.5" rx="14" ry="14.5" fill="black"/>
<rect x="95" y="56" width="50" height="127" rx="9" fill="black"/>
<ellipse cx="120" cy="29.5" rx="20" ry="20.5" fill="black"/>
<rect x="117" y="39" width="5" height="4" fill="white"/>
<path d="M120.213 17C126.491 17.4496 128.432 19.0686 129 24.4978C128.576 26.437 128.152 27.558 127.123 28.2466C126.62 28.8102 126.307 29.0944 125.673 29.5247L124.137 30.6323C122.342 31.5507 122.385 32.2578 122.261 34.0404L122.175 36H117.142V34.1256C117.556 31.4966 118.22 30.1011 121.493 27.991C122.95 27.1013 123.53 26.3558 124.052 24.4978C124.001 22.5825 123.586 21.8411 122.09 21.1749C120.836 20.7763 120.144 20.7428 118.934 21.0897C117.178 21.6842 116.518 22.3849 115.948 24.3274H111C112.599 19.1416 114.407 17.2935 120.213 17Z" fill="white"/>
</svg>
