<svg width="239" height="210" viewBox="0 0 239 210" fill="none" xmlns="http://www.w3.org/2000/svg">
<line x1="33.5" y1="10.0026" x2="32.5" y2="200.003" stroke="black"/>
<line x1="11" y1="9.5" x2="229" y2="9.5" stroke="black"/>
<line x1="11.5" y1="10.0026" x2="10.5" y2="200.003" stroke="black"/>
<line x1="10" y1="199.5" x2="227" y2="199.5" stroke="black"/>
<line x1="228.5" y1="10.0026" x2="227.5" y2="200.003" stroke="black"/>
<path d="M217 103C217 152.706 176.706 193 127 193C77.2944 193 37 152.706 37 103C37 53.2944 77.2944 13 127 13C176.706 13 217 53.2944 217 103ZM38.5904 103C38.5904 151.827 78.1727 191.41 127 191.41C175.827 191.41 215.41 151.827 215.41 103C215.41 54.1727 175.827 14.5904 127 14.5904C78.1727 14.5904 38.5904 54.1727 38.5904 103Z" fill="black"/>
<path d="M157 104C157 121.121 143.121 135 126 135C108.879 135 95 121.121 95 104C95 86.8792 108.879 73 126 73C143.121 73 157 86.8792 157 104ZM98.2802 104C98.2802 119.309 110.691 131.72 126 131.72C141.309 131.72 153.72 119.309 153.72 104C153.72 88.6908 141.309 76.2802 126 76.2802C110.691 76.2802 98.2802 88.6908 98.2802 104Z" fill="black"/>
<path d="M147 103C147 114.598 137.598 124 126 124C114.402 124 105 114.598 105 103C105 91.402 114.402 82 126 82C137.598 82 147 91.402 147 103ZM105.982 103C105.982 114.056 114.944 123.018 126 123.018C137.056 123.018 146.018 114.056 146.018 103C146.018 91.9443 137.056 82.9819 126 82.9819C114.944 82.9819 105.982 91.9443 105.982 103Z" fill="black"/>
<path d="M127 30C163.796 32.6382 175.17 42.1391 178.5 74C176.014 85.38 173.528 91.9585 167.5 96C164.552 99.3072 162.716 100.975 159 103.5L150 110C139.477 115.389 139.729 119.539 139 130L138.5 141.5H109V130.5C111.423 115.072 115.316 106.882 134.5 94.5C143.042 89.2786 146.437 84.9039 149.5 74C149.2 62.7603 146.77 58.4098 138 54.5C130.652 52.1609 126.593 51.9641 119.5 54C109.208 57.489 105.339 61.6009 102 73H73C82.3722 42.568 92.9667 31.7226 127 30Z" fill="black"/>
<rect x="109" y="153" width="29" height="27" fill="black"/>
</svg>
